<svg width="26" height="18" viewBox="0 0 26 18" fill="none" xmlns="http://www.w3.org/2000/svg">
<rect x="1.39258" y="0.742188" width="24.0421" height="16.3566" rx="3.5" fill="#006FCF" stroke="#F3F3F3"/>
<path fill-rule="evenodd" clip-rule="evenodd" d="M6.01469 12.7796V9.20651H10.0403L10.4722 9.73565L10.9184 9.20651H25.5302V12.5332C25.5302 12.5332 25.1481 12.776 24.7062 12.7796H16.6153L16.1283 12.2164V12.7796H14.5326V11.8181C14.5326 11.8181 14.3146 11.9523 13.8434 11.9523H13.3002V12.7796H10.8842L10.4529 12.2391L10.015 12.7796H6.01469ZM1.32434 6.5135L2.23007 4.52454H3.79643L4.31044 5.63867V4.52454H6.25757L6.56356 5.3298L6.8602 4.52454H15.6008V4.92937C15.6008 4.92937 16.0603 4.52454 16.8154 4.52454L19.6514 4.53387L20.1566 5.63343V4.52454H21.786L22.2345 5.15614V4.52454H23.8789V8.09763H22.2345L21.8047 7.46398V8.09763H19.4107L19.1699 7.53438H18.5263L18.2895 8.09763H16.6659C16.0162 8.09763 15.6008 7.70106 15.6008 7.70106V8.09763H13.1529L12.667 7.53438V8.09763H3.56438L3.32379 7.53438H2.68225L2.44336 8.09763H1.32434V6.5135ZM1.32906 7.64041L2.55069 4.96499H3.47684L4.6973 7.64041H3.88444L3.6602 7.10467H2.34981L2.12441 7.64041H1.32906ZM3.40214 6.52384L3.00272 5.58766L2.60212 6.52384H3.40214ZM4.78136 7.64V4.96458L5.91158 4.96853L6.56896 6.69347L7.2106 4.96458H8.33178V7.64H7.6217V5.66864L6.86899 7.64H6.24625L5.49144 5.66864V7.64H4.78136ZM8.81763 7.64V4.96458H11.1348V5.56303H9.53519V6.02067H11.0974V6.58391H9.53519V7.05915H11.1348V7.64H8.81763ZM11.5458 7.64041V4.96499H13.126C13.6495 4.96499 14.1187 5.26996 14.1187 5.83296C14.1187 6.31425 13.7231 6.62425 13.3397 6.65473L14.274 7.64041H13.4063L12.5549 6.68993H12.2559V7.64041H11.5458ZM13.0676 5.56342H12.2559V6.12666H13.0782C13.2205 6.12666 13.404 6.02278 13.404 5.84504C13.404 5.70689 13.2624 5.56342 13.0676 5.56342ZM15.1336 7.64H14.4086V4.96458H15.1336V7.64ZM16.8528 7.64H16.6963C15.939 7.64 15.4793 7.07808 15.4793 6.31329C15.4793 5.52961 15.9339 4.96458 16.8901 4.96458H17.675V5.59823H16.8614C16.4733 5.59823 16.1987 5.88358 16.1987 6.31989C16.1987 6.83802 16.5126 7.05563 16.9649 7.05563H17.1517L16.8528 7.64ZM17.1764 7.64041L18.398 4.96499H19.3241L20.5446 7.64041H19.7317L19.5075 7.10467H18.1971L17.9717 7.64041H17.1764ZM19.2495 6.52384L18.85 5.58766L18.4494 6.52384H19.2495ZM20.6275 7.64V4.96458H21.5303L22.683 6.64552V4.96458H23.3931V7.64H22.5195L21.3376 5.91506V7.64H20.6275ZM6.50051 12.322V9.64656H8.81763V10.245H7.21807V10.7027H8.78026V11.2659H7.21807V11.7411H8.81763V12.322H6.50051ZM17.8544 12.322V9.64656H20.1715V10.245H18.572V10.7027H20.1267V11.2659H18.572V11.7411H20.1715V12.322H17.8544ZM8.90751 12.322L10.0357 11.0008L8.88065 9.64656H9.77526L10.4632 10.4837L11.1534 9.64656H12.013L10.8731 10.9843L12.0034 12.322H11.1089L10.441 11.498L9.78928 12.322H8.90751ZM12.0878 12.3224V9.64698H13.6563C14.2999 9.64698 14.6759 10.0377 14.6759 10.5468C14.6759 11.1615 14.1965 11.4775 13.564 11.4775H12.8166V12.3224H12.0878ZM13.6037 10.252H12.8165V10.8681H13.6014C13.8087 10.8681 13.9541 10.7386 13.9541 10.5601C13.9541 10.37 13.808 10.252 13.6037 10.252ZM14.9842 12.322V9.64656H16.5644C17.088 9.64656 17.5571 9.95153 17.5571 10.5145C17.5571 10.9958 17.1616 11.3058 16.7781 11.3363L17.7124 12.322H16.8447L15.9933 11.3715H15.6943V12.322H14.9842ZM16.506 10.245H15.6943V10.8082H16.5165C16.6589 10.8082 16.8424 10.7043 16.8424 10.5266C16.8424 10.3884 16.7007 10.245 16.506 10.245ZM20.5004 12.322V11.7411H21.9215C22.1317 11.7411 22.2228 11.6341 22.2228 11.5167C22.2228 11.4042 22.132 11.2905 21.9215 11.2905H21.2793C20.7211 11.2905 20.4102 10.9702 20.4102 10.4892C20.4102 10.0603 20.6949 9.64656 21.5244 9.64656H22.9072L22.6082 10.2485H21.4122C21.1836 10.2485 21.1133 10.3615 21.1133 10.4694C21.1133 10.5803 21.2002 10.7027 21.3749 10.7027H22.0476C22.6699 10.7027 22.9399 11.0351 22.9399 11.4705C22.9399 11.9386 22.639 12.322 22.0137 12.322H20.5004ZM23.0025 12.322V11.7411H24.4236C24.6339 11.7411 24.725 11.6341 24.725 11.5167C24.725 11.4042 24.6342 11.2905 24.4236 11.2905H23.7815C23.2233 11.2905 22.9124 10.9702 22.9124 10.4892C22.9124 10.0603 23.1971 9.64656 24.0266 9.64656H25.4094L25.1104 10.2485H23.9144C23.6858 10.2485 23.6155 10.3615 23.6155 10.4694C23.6155 10.5803 23.7024 10.7027 23.8771 10.7027H24.5498C25.172 10.7027 25.4421 11.0351 25.4421 11.4705C25.4421 11.9386 25.1412 12.322 24.5159 12.322H23.0025Z" fill="white"/>
</svg>
