<svg width="31" height="31" viewBox="0 0 31 31" fill="none" xmlns="http://www.w3.org/2000/svg">
<path d="M11.3021 12.9167C11.3021 10.5982 13.1816 8.71875 15.5 8.71875C17.8184 8.71875 19.6979 10.5982 19.6979 12.9167C19.6979 15.2351 17.8184 17.1146 15.5 17.1146C13.1816 17.1146 11.3021 15.2351 11.3021 12.9167Z" fill="#0079F0"/>
<path fill-rule="evenodd" clip-rule="evenodd" d="M4.87416 11.4666C5.31803 6.08174 9.81793 1.9375 15.2211 1.9375H15.779C21.1821 1.9375 25.682 6.08174 26.1259 11.4666C26.3649 14.3659 25.4693 17.2448 23.6278 19.4968L17.4368 27.0683C16.4358 28.2925 14.5643 28.2925 13.5633 27.0683L7.37222 19.4968C5.53074 17.2448 4.63518 14.3659 4.87416 11.4666ZM15.5 6.78125C12.1115 6.78125 9.36458 9.52817 9.36458 12.9167C9.36458 16.3052 12.1115 19.0521 15.5 19.0521C18.8885 19.0521 21.6354 16.3052 21.6354 12.9167C21.6354 9.52817 18.8885 6.78125 15.5 6.78125Z" fill="#0079F0"/>
</svg>
