<svg width="31" height="31" viewBox="0 0 31 31" fill="none" xmlns="http://www.w3.org/2000/svg">
<path fill-rule="evenodd" clip-rule="evenodd" d="M5.09863 6.45834C5.09863 5.38829 5.96608 4.52084 7.03613 4.52084H23.8278C24.8978 4.52084 25.7653 5.38829 25.7653 6.45834V11.625C25.7653 12.6951 24.8978 13.5625 23.8278 13.5625H7.03613C5.96608 13.5625 5.09863 12.6951 5.09863 11.625V6.45834ZM7.74996 9.04168C7.74996 8.32831 8.32826 7.75001 9.04163 7.75001C9.755 7.75001 10.3333 8.32831 10.3333 9.04168C10.3333 9.75504 9.755 10.3333 9.04163 10.3333C8.32826 10.3333 7.74996 9.75504 7.74996 9.04168ZM12.9166 7.75001C12.2033 7.75001 11.625 8.32831 11.625 9.04168C11.625 9.75504 12.2033 10.3333 12.9166 10.3333C13.63 10.3333 14.2083 9.75504 14.2083 9.04168C14.2083 8.32831 13.63 7.75001 12.9166 7.75001Z" fill="#0079F0"/>
<path fill-rule="evenodd" clip-rule="evenodd" d="M5.09863 16.7917C5.09863 15.7216 5.96608 14.8542 7.03613 14.8542H23.8278C24.8978 14.8542 25.7653 15.7216 25.7653 16.7917V21.9583C25.7653 23.0284 24.8978 23.8958 23.8278 23.8958H16.4687V26.1563H24.5416C25.0767 26.1563 25.5104 26.59 25.5104 27.125C25.5104 27.66 25.0767 28.0938 24.5416 28.0938H6.4583C5.92327 28.0938 5.48955 27.66 5.48955 27.125C5.48955 26.59 5.92327 26.1563 6.4583 26.1563H14.5312V23.8958H7.03613C5.96608 23.8958 5.09863 23.0284 5.09863 21.9583V16.7917ZM7.74996 19.375C7.74996 18.6616 8.32826 18.0833 9.04163 18.0833C9.755 18.0833 10.3333 18.6616 10.3333 19.375C10.3333 20.0884 9.755 20.6667 9.04163 20.6667C8.32826 20.6667 7.74996 20.0884 7.74996 19.375ZM11.625 19.375C11.625 18.6616 12.2033 18.0833 12.9166 18.0833C13.63 18.0833 14.2083 18.6616 14.2083 19.375C14.2083 20.0884 13.63 20.6667 12.9166 20.6667C12.2033 20.6667 11.625 20.0884 11.625 19.375Z" fill="#0079F0"/>
</svg>
