<svg width="20" height="20" viewBox="0 0 20 20" fill="none" xmlns="http://www.w3.org/2000/svg">
<path d="M18.3333 8.41678C18.4166 8.00011 18.0833 7.50011 17.6666 7.50011L12.9166 6.83344L10.75 2.50011C10.6666 2.33344 10.5833 2.25011 10.4166 2.16678C9.99996 1.91678 9.49996 2.08344 9.24996 2.50011L7.16663 6.83344L2.41663 7.50011C2.16663 7.50011 1.99996 7.58344 1.91663 7.75011C1.58329 8.08344 1.58329 8.58344 1.91663 8.91678L5.33329 12.2501L4.49996 17.0001C4.49996 17.1668 4.49996 17.3334 4.58329 17.5001C4.83329 17.9168 5.33329 18.0834 5.74996 17.8334L9.99996 15.5834L14.25 17.8334C14.3333 17.9168 14.5 17.9168 14.6666 17.9168C14.75 17.9168 14.75 17.9168 14.8333 17.9168C15.25 17.8334 15.5833 17.4168 15.5 16.9168L14.6666 12.1668L18.0833 8.83344C18.25 8.75011 18.3333 8.58344 18.3333 8.41678Z" fill="#FF922E"/>
</svg>
