<svg width="20" height="20" viewBox="0 0 20 20" fill="none" xmlns="http://www.w3.org/2000/svg">
<path d="M10.3975 3.71065C10.3009 3.72665 10.2301 3.81012 10.2301 3.90796V9.18096C10.2301 9.29142 10.3197 9.38096 10.4301 9.38096H17.4911C17.6015 9.38096 17.6911 9.29142 17.6911 9.18096V2.73791C17.6911 2.6144 17.5802 2.52041 17.4584 2.5406L10.3975 3.71065ZM10.2301 16.1113C10.2301 16.2093 10.3012 16.2929 10.398 16.3087L17.4589 17.4584C17.5806 17.4782 17.6911 17.3843 17.6911 17.261V10.8212C17.6911 10.7107 17.6015 10.6212 17.4911 10.6212H10.4301C10.3197 10.6212 10.2301 10.7107 10.2301 10.8212V16.1113ZM2.3454 9.17901C2.3454 9.28947 2.43494 9.37901 2.5454 9.37901H8.45203C8.56248 9.37901 8.65203 9.28947 8.65203 9.17901V4.17932C8.65203 4.05581 8.54119 3.96182 8.41934 3.98201L2.51271 4.96066C2.41618 4.97665 2.3454 5.06013 2.3454 5.15797V9.17901ZM2.3454 14.8808C2.3454 14.9789 2.41647 15.0625 2.51324 15.0782L8.41987 16.0404C8.54156 16.0602 8.65203 15.9663 8.65203 15.843V10.8212C8.65203 10.7107 8.56248 10.6212 8.45203 10.6212H2.5454C2.43494 10.6212 2.3454 10.7107 2.3454 10.8212V14.8808Z" fill="white"/>
</svg>
