<svg width="25" height="25" viewBox="0 0 25 25" fill="none" xmlns="http://www.w3.org/2000/svg">
<path d="M13.1907 21.0937C13.6678 21.0937 14.1147 20.8604 14.3873 20.4688L18.7955 14.1385C19.6233 12.9498 19.9922 11.5014 19.834 10.0615L19.495 6.9767C19.3502 5.65847 18.3153 4.61429 16.9984 4.45764L14.7932 4.19531C13.1092 3.99499 11.4017 4.16863 9.79247 4.70387C8.66608 5.07852 7.76388 5.93345 7.32921 7.03807L5.54941 11.5611C5.46332 11.7798 5.40382 12.0082 5.3722 12.2411C5.09687 14.2694 6.92961 15.9498 8.92645 15.4998L12.9868 14.5849L11.7786 19.2715C11.5407 20.1944 12.2376 21.0938 13.1907 21.0937Z" fill="#FF4C34"/>
</svg>
