<svg width="31" height="31" viewBox="0 0 31 31" fill="none" xmlns="http://www.w3.org/2000/svg">
<path d="M10.0104 5.16667C10.0104 4.63165 9.57664 4.19792 9.04161 4.19792C8.50659 4.19792 8.07286 4.63165 8.07286 5.16667V7.51289C6.14431 7.78554 4.62072 9.31092 4.36281 11.2567L4.25101 12.1001C4.23206 12.2431 4.21394 12.3861 4.19664 12.5293C4.15077 12.909 4.44992 13.2396 4.83239 13.2396H26.1674C26.5499 13.2396 26.8491 12.909 26.8032 12.5293C26.7859 12.3861 26.7678 12.2431 26.7488 12.1001L26.637 11.2567C26.3791 9.31094 24.8555 7.78558 22.927 7.5129V5.16667C22.927 4.63165 22.4933 4.19792 21.9583 4.19792C21.4233 4.19792 20.9895 4.63165 20.9895 5.16667V7.3207C17.337 6.99542 13.6629 6.99542 10.0104 7.32069V5.16667Z" fill="#0079F0"/>
<path d="M27.0533 15.7913C27.042 15.4472 26.7577 15.1771 26.4133 15.1771H4.58648C4.24216 15.1771 3.95778 15.4472 3.94647 15.7913C3.86975 18.1262 4.01158 20.4659 4.37161 22.7796C4.64416 24.5312 6.06714 25.8765 7.83122 26.0505L9.37218 26.2025C13.4475 26.6044 17.5524 26.6044 21.6276 26.2025L23.1686 26.0505C24.9327 25.8765 26.3557 24.5312 26.6282 22.7796C26.9882 20.4659 27.1301 18.1262 27.0533 15.7913Z" fill="#0079F0"/>
</svg>
