<svg width="25" height="25" viewBox="0 0 25 25" fill="none" xmlns="http://www.w3.org/2000/svg">
<path d="M12.5652 2.15106C12.2634 2.01878 11.9663 2.11132 11.7751 2.30599C11.5895 2.4951 11.4966 2.78371 11.5617 3.07471C11.6645 3.53402 11.7187 4.01189 11.7187 4.50274C11.7187 5.62341 11.4363 6.40832 10.9503 7.05899C10.4563 7.72043 9.74113 8.25892 8.83819 8.86651C8.82399 8.87606 8.81078 8.88699 8.79872 8.89913L8.68936 9.00934C6.75203 10.261 5.46875 12.4402 5.46875 14.9194C5.46875 18.8027 8.61675 21.9507 12.5 21.9507C16.3833 21.9507 19.5312 18.8027 19.5312 14.9194C19.5312 13.7792 19.2597 12.7018 18.7774 11.7488C18.7382 11.6713 18.6629 11.6184 18.5767 11.6079C18.4904 11.5974 18.4046 11.6305 18.3479 11.6963C18.2744 11.7815 18.2025 11.8655 18.1316 11.9483C17.2167 13.0173 16.4784 13.8799 14.9647 14.2653C14.9004 14.2817 14.8604 14.2695 14.832 14.2517C14.7986 14.2309 14.7621 14.1892 14.737 14.1227C14.6849 13.984 14.7073 13.8072 14.8142 13.6913C15.6237 12.8136 16.1988 11.6221 16.4044 9.92719C16.7893 6.7523 15.3463 3.37043 12.5652 2.15106Z" fill="url(#paint0_linear_1_9450)"/>
<defs>
<linearGradient id="paint0_linear_1_9450" x1="12.5" y1="2.08911" x2="12.5" y2="21.9507" gradientUnits="userSpaceOnUse">
<stop stop-color="#FFC736"/>
<stop offset="1" stop-color="#FF630C"/>
</linearGradient>
</defs>
</svg>
