<svg width="27" height="20" viewBox="0 0 27 20" fill="none" xmlns="http://www.w3.org/2000/svg">
<path d="M16.972 14.2324H9.98157V1.73865H16.972V14.2324Z" fill="#6C6BBD"/>
<path d="M10.4254 7.98586C10.4254 5.45144 11.6186 3.19384 13.4767 1.73896C12.1179 0.67508 10.4031 0.0400848 8.53938 0.0400848C4.12729 0.0400848 0.550781 3.59747 0.550781 7.98586C0.550781 12.3743 4.12729 15.9316 8.53938 15.9316C10.4031 15.9316 12.1179 15.2966 13.4767 14.2328C11.6186 12.7779 10.4254 10.5203 10.4254 7.98586Z" fill="#EB001B"/>
<path d="M26.403 7.98586C26.403 12.3743 22.8265 15.9316 18.4144 15.9316C16.5507 15.9316 14.8358 15.2966 13.4766 14.2328C15.3352 12.7779 16.5284 10.5203 16.5284 7.98586C16.5284 5.45144 15.3352 3.19384 13.4766 1.73896C14.8358 0.67508 16.5507 0.0400848 18.4144 0.0400848C22.8265 0.0400848 26.403 3.59747 26.403 7.98586Z" fill="#0099DF"/>
<path d="M19.3372 17.7628C19.4302 17.7628 19.5638 17.7805 19.6659 17.8204L19.5236 18.2528C19.4261 18.2129 19.3286 18.1998 19.2351 18.1998C18.9334 18.1998 18.7825 18.3937 18.7825 18.7423V19.9254H18.3208V17.8158H18.778V18.072C18.8978 17.8866 19.071 17.7628 19.3372 17.7628Z" fill="#231F20"/>
<path d="M17.6316 18.2352H16.8773V19.1884C16.8773 19.4001 16.9524 19.5415 17.1835 19.5415C17.3034 19.5415 17.4543 19.5016 17.5914 19.4223L17.7245 19.8148C17.5782 19.9164 17.3476 19.9785 17.148 19.9785C16.6019 19.9785 16.4115 19.687 16.4115 19.197V18.2352H15.9807V17.8159H16.4115V17.1758H16.8773V17.8159H17.6316V18.2352Z" fill="#231F20"/>
<path fill-rule="evenodd" clip-rule="evenodd" d="M12.2971 17.7628C12.8919 17.7628 13.3003 18.2129 13.3049 18.8706C13.3049 18.9318 13.3004 18.9884 13.2959 19.0456L13.2958 19.047H11.7206C11.7871 19.4263 12.0579 19.5632 12.355 19.5632C12.5679 19.5632 12.7944 19.4839 12.9717 19.3425L13.1982 19.6825C12.9407 19.8987 12.6481 19.978 12.3286 19.978C11.6937 19.978 11.2411 19.541 11.2411 18.8706C11.2411 18.2129 11.6759 17.7628 12.2971 17.7628ZM12.2885 18.173C11.9598 18.173 11.7739 18.3806 11.7246 18.6852H12.8254C12.7766 18.3584 12.5856 18.173 12.2885 18.173Z" fill="#231F20"/>
<path d="M15.3325 18.3544C15.204 18.2746 14.9424 18.173 14.6717 18.173C14.4187 18.173 14.2679 18.266 14.2679 18.4206C14.2679 18.5615 14.4274 18.6014 14.627 18.6277L14.8444 18.6585C15.3061 18.7252 15.5855 18.9192 15.5855 19.29C15.5855 19.6916 15.2304 19.9785 14.6184 19.9785C14.2719 19.9785 13.9524 19.8901 13.6995 19.7047L13.9169 19.3471C14.0723 19.4663 14.3034 19.5678 14.6229 19.5678C14.9379 19.5678 15.1065 19.4754 15.1065 19.3117C15.1065 19.193 14.9866 19.1263 14.7337 19.0914L14.5163 19.0606C14.0413 18.9939 13.7838 18.7823 13.7838 18.4383C13.7838 18.019 14.1302 17.7628 14.6671 17.7628C15.0044 17.7628 15.3107 17.8381 15.5322 17.9836L15.3325 18.3544Z" fill="#231F20"/>
<path fill-rule="evenodd" clip-rule="evenodd" d="M21.4813 17.8482C21.3411 17.7911 21.1887 17.7628 21.0241 17.7628C20.8595 17.7628 20.7071 17.7911 20.5669 17.8482C20.4267 17.9048 20.3064 17.9831 20.2048 18.0826C20.1032 18.1821 20.0234 18.2998 19.9655 18.4352C19.9076 18.5711 19.8787 18.7186 19.8787 18.8777C19.8787 19.0368 19.9076 19.1844 19.9655 19.3202C20.0234 19.4556 20.1032 19.5738 20.2048 19.6734C20.3064 19.7729 20.4267 19.8507 20.5669 19.9078C20.7071 19.9643 20.8595 19.9926 21.0241 19.9926C21.1887 19.9926 21.3411 19.9643 21.4813 19.9078C21.6215 19.8507 21.7429 19.7729 21.845 19.6734C21.9476 19.5738 22.0273 19.4556 22.0852 19.3202C22.1431 19.1844 22.1721 19.0368 22.1721 18.8777C22.1721 18.7186 22.1431 18.5711 22.0852 18.4352C22.0273 18.2998 21.9476 18.1821 21.845 18.0826C21.7429 17.9831 21.6215 17.9048 21.4813 17.8482ZM20.7594 18.2483C20.8412 18.2154 20.9291 18.1988 21.0241 18.1988C21.119 18.1988 21.2074 18.2154 21.2887 18.2483C21.3705 18.2816 21.4416 18.3281 21.501 18.3877C21.5615 18.4473 21.6082 18.519 21.6427 18.6024C21.6768 18.6857 21.6935 18.7777 21.6935 18.8777C21.6935 18.9782 21.6768 19.0697 21.6427 19.153C21.6082 19.2364 21.5615 19.3081 21.501 19.3677C21.4416 19.4273 21.3705 19.4738 21.2887 19.5071C21.2074 19.5405 21.119 19.5567 21.0241 19.5567C20.9291 19.5567 20.8412 19.5405 20.7594 19.5071C20.6781 19.4738 20.6075 19.4273 20.5481 19.3677C20.4887 19.3081 20.4419 19.2364 20.4079 19.153C20.3739 19.0697 20.3571 18.9782 20.3571 18.8777C20.3571 18.7777 20.3739 18.6857 20.4079 18.6024C20.4419 18.519 20.4887 18.4473 20.5481 18.3877C20.6075 18.3281 20.6781 18.2816 20.7594 18.2483Z" fill="#231F20"/>
<path fill-rule="evenodd" clip-rule="evenodd" d="M10.7458 17.8159V18.8706V19.9254H10.2846V19.6693C10.1378 19.8593 9.91629 19.9785 9.61456 19.9785C9.01975 19.9785 8.55396 19.5147 8.55396 18.8706C8.55396 18.2261 9.01975 17.7628 9.61456 17.7628C9.91629 17.7628 10.1378 17.882 10.2846 18.072V17.8159H10.7458ZM9.67194 18.1952C9.27269 18.1952 9.02836 18.4998 9.02836 18.8706C9.02836 19.2414 9.27269 19.5455 9.67194 19.5455C10.0534 19.5455 10.3109 19.2546 10.3109 18.8706C10.3109 18.4867 10.0534 18.1952 9.67194 18.1952Z" fill="#231F20"/>
<path d="M8.14565 19.9254V18.6014C8.14565 18.1028 7.82615 17.7673 7.31159 17.7628C7.04085 17.7582 6.76097 17.8421 6.56592 18.1381C6.41963 17.9042 6.18851 17.7628 5.86443 17.7628C5.63839 17.7628 5.41642 17.829 5.2432 18.076V17.8158H4.78198V19.9254H5.24778V18.756C5.24778 18.3897 5.45197 18.1952 5.7669 18.1952C6.0732 18.1952 6.22863 18.3937 6.22863 18.7514V19.9254H6.69443V18.756C6.69443 18.3897 6.90777 18.1952 7.21356 18.1952C7.529 18.1952 7.67986 18.3937 7.67986 18.7514V19.9254H8.14565V19.9254Z" fill="#231F20"/>
</svg>
