<svg width="27" height="21" viewBox="0 0 27 21" fill="none" xmlns="http://www.w3.org/2000/svg">
<path fill-rule="evenodd" clip-rule="evenodd" d="M7.86702 17.8497V18.9064V19.9631H7.40495V19.7065C7.25839 19.8968 7.03601 20.0162 6.73373 20.0162C6.13782 20.0162 5.67067 19.5521 5.67067 18.9064C5.67067 18.2611 6.13782 17.7965 6.73373 17.7965C7.03601 17.7965 7.25839 17.9159 7.40495 18.1062V17.8497H7.86702ZM6.79122 18.2297C6.39124 18.2297 6.14647 18.5349 6.14647 18.9064C6.14647 19.2778 6.39124 19.583 6.79122 19.583C7.17339 19.583 7.43139 19.291 7.43139 18.9064C7.43139 18.5217 7.17339 18.2297 6.79122 18.2297ZM23.4816 18.9064C23.4816 18.5349 23.7264 18.2297 24.1264 18.2297C24.5091 18.2297 24.7666 18.5217 24.7666 18.9064C24.7666 19.291 24.5091 19.583 24.1264 19.583C23.7264 19.583 23.4816 19.2778 23.4816 18.9064ZM25.2027 17.0009V18.9064V19.9631H24.7401V19.7065C24.5935 19.8968 24.3712 20.0162 24.0689 20.0162C23.473 20.0162 23.0058 19.5521 23.0058 18.9064C23.0058 18.2611 23.473 17.7965 24.0689 17.7965C24.3712 17.7965 24.5935 17.9159 24.7401 18.1062V17.0009H25.2027ZM13.6026 18.208C13.9003 18.208 14.0917 18.3937 14.1405 18.7206H13.0378C13.0872 18.4155 13.2734 18.208 13.6026 18.208ZM12.5533 18.9064C12.5533 18.2474 12.9889 17.7965 13.6118 17.7965C14.2072 17.7965 14.6163 18.2474 14.6209 18.9064C14.6209 18.9681 14.6163 19.0258 14.6118 19.083H13.0337C13.1004 19.4636 13.3716 19.6007 13.6693 19.6007C13.8825 19.6007 14.1095 19.5208 14.2876 19.3796L14.5141 19.7202C14.2561 19.9368 13.9629 20.0162 13.6428 20.0162C13.0067 20.0162 12.5533 19.5785 12.5533 18.9064ZM19.1912 18.9064C19.1912 18.5349 19.436 18.2297 19.836 18.2297C20.2182 18.2297 20.4762 18.5217 20.4762 18.9064C20.4762 19.291 20.2182 19.583 19.836 19.583C19.436 19.583 19.1912 19.2778 19.1912 18.9064ZM20.9118 17.8497V18.9064V19.9631H20.4497V19.7065C20.3026 19.8968 20.0808 20.0162 19.7785 20.0162C19.1826 20.0162 18.7154 19.5521 18.7154 18.9064C18.7154 18.2611 19.1826 17.7965 19.7785 17.7965C20.0808 17.7965 20.3026 17.9159 20.4497 18.1062V17.8497H20.9118ZM16.5816 18.9064C16.5816 19.5476 17.0305 20.0162 17.7154 20.0162C18.0355 20.0162 18.2487 19.9454 18.4798 19.7642L18.2579 19.3927C18.0844 19.5167 17.9022 19.583 17.7017 19.583C17.3327 19.5785 17.0615 19.3133 17.0615 18.9064C17.0615 18.4995 17.3327 18.2343 17.7017 18.2297C17.9022 18.2297 18.0844 18.296 18.2579 18.42L18.4798 18.0485C18.2487 17.8674 18.0355 17.7965 17.7154 17.7965C17.0305 17.7965 16.5816 18.2652 16.5816 18.9064ZM21.9788 18.1062C22.0989 17.9205 22.2724 17.7965 22.5391 17.7965C22.6327 17.7965 22.7661 17.8142 22.8684 17.8542L22.7259 18.2874C22.6282 18.2474 22.5305 18.2343 22.4368 18.2343C22.1345 18.2343 21.9834 18.4286 21.9834 18.7783V19.9631H21.5208V17.8497H21.9788V18.1062ZM10.1524 18.0177C9.93 17.8719 9.62365 17.7965 9.28575 17.7965C8.74735 17.7965 8.4008 18.0531 8.4008 18.4732C8.4008 18.8178 8.6588 19.0304 9.1341 19.0967L9.35241 19.1275C9.60584 19.163 9.72542 19.2293 9.72542 19.3487C9.72542 19.5122 9.55647 19.6053 9.24097 19.6053C8.92088 19.6053 8.68985 19.5036 8.53413 19.3841L8.31632 19.7419C8.56975 19.9277 8.88984 20.0162 9.23639 20.0162C9.8501 20.0162 10.2058 19.7288 10.2058 19.3264C10.2058 18.955 9.92592 18.7606 9.46335 18.6943L9.24555 18.6629C9.04555 18.6366 8.88526 18.5972 8.88526 18.4554C8.88526 18.3006 9.0364 18.208 9.28982 18.208C9.56105 18.208 9.82364 18.3097 9.95239 18.3891L10.1524 18.0177ZM15.5547 18.1062C15.6743 17.9205 15.8478 17.7965 16.1145 17.7965C16.2081 17.7965 16.3415 17.8142 16.4438 17.8542L16.3013 18.2874C16.2036 18.2474 16.1059 18.2343 16.0122 18.2343C15.7099 18.2343 15.5588 18.4286 15.5588 18.7783V19.9631H15.0967V17.8497H15.5547V18.1062ZM12.1711 17.8496H11.4154V17.2084H10.9482V17.8496H10.5172V18.2697H10.9482V19.2338C10.9482 19.7242 11.1396 20.0162 11.6861 20.0162C11.8866 20.0162 12.1176 19.9545 12.2642 19.8528L12.1309 19.459C11.993 19.5385 11.8418 19.5785 11.7217 19.5785C11.4907 19.5785 11.4154 19.4368 11.4154 19.2247V18.2697H12.1711V17.8496ZM5.262 18.6366V19.9631H4.79485V18.7869C4.79485 18.4286 4.64371 18.2297 4.3282 18.2297C4.02134 18.2297 3.80812 18.4246 3.80812 18.7915V19.9631H3.34096V18.7869C3.34096 18.4286 3.18576 18.2297 2.8789 18.2297C2.56288 18.2297 2.35831 18.4246 2.35831 18.7915V19.9631H1.89166L1.89166 17.8497H2.35424L2.35424 18.1103C2.52777 17.8628 2.74964 17.7965 2.9766 17.7965C3.30127 17.7965 3.53231 17.9382 3.67886 18.1725C3.87478 17.876 4.15467 17.792 4.42591 17.7965C4.94191 17.8011 5.262 18.1371 5.262 18.6366Z" fill="#231F20"/>
<path d="M17.0025 14.2585H9.99921V1.74182H17.0025V14.2585Z" fill="#FF5F00"/>
<path d="M10.4435 8.00037C10.4435 5.46131 11.6389 3.19958 13.5004 1.74203C12.1391 0.676204 10.4211 0.0400471 8.554 0.0400471C4.13384 0.0400471 0.550781 3.60395 0.550781 8.00037C0.550781 12.3968 4.13384 15.9607 8.554 15.9607C10.4211 15.9607 12.1391 15.3245 13.5004 14.2587C11.6389 12.8012 10.4435 10.5394 10.4435 8.00037" fill="#EB001B"/>
<path d="M26.4505 8.00037C26.4505 12.3968 22.8674 15.9607 18.4472 15.9607C16.5801 15.9607 14.8621 15.3245 13.5004 14.2587C15.3624 12.8012 16.5577 10.5394 16.5577 8.00037C16.5577 5.46131 15.3624 3.19958 13.5004 1.74203C14.8621 0.676204 16.5801 0.0400471 18.4472 0.0400471C22.8674 0.0400471 26.4505 3.60395 26.4505 8.00037" fill="#F79E1B"/>
</svg>
