<svg width="31" height="31" viewBox="0 0 31 31" fill="none" xmlns="http://www.w3.org/2000/svg">
<path fill-rule="evenodd" clip-rule="evenodd" d="M24.219 14.2084L24.211 14.5226L24.219 14.8543L24.2114 15.1706L24.2189 15.5001L23.9752 26.1605C23.9449 27.4872 22.9359 28.5859 21.6166 28.7288C17.5507 29.1691 13.4492 29.1691 9.3833 28.7288C8.06399 28.5859 7.05496 27.4872 7.02463 26.1605L6.78093 15.5001L6.78851 15.1684L6.78095 14.8543L6.7889 14.5239L6.78088 14.2084L6.99879 5.62986C7.00023 5.57317 7.00298 5.51679 7.007 5.46074L7.02136 4.86377C7.05421 3.49886 8.09668 2.37121 9.45482 2.23149C9.56784 2.21986 9.6809 2.20856 9.79398 2.19758C9.94734 2.16194 10.1046 2.13595 10.2651 2.1203C13.7468 1.78096 17.2531 1.78096 20.7348 2.1203C20.8953 2.13595 21.0525 2.16193 21.2059 2.19757C21.319 2.20855 21.4321 2.21985 21.5451 2.23149C22.9033 2.37121 23.9458 3.49886 23.9786 4.86377L23.993 5.4621C23.997 5.51769 23.9997 5.57363 24.0011 5.62986L24.219 14.2084ZM20.6666 22.9271C21.2016 22.9271 21.6354 22.4934 21.6354 21.9583C21.6354 21.4233 21.2016 20.9896 20.6666 20.9896H10.3333C9.79826 20.9896 9.36453 21.4233 9.36453 21.9583C9.36453 22.4934 9.79826 22.9271 10.3333 22.9271H20.6666ZM15.4999 28.0293C16.57 28.0293 17.4374 27.1618 17.4374 26.0918C17.4374 25.0217 16.57 24.1543 15.4999 24.1543C14.4299 24.1543 13.5624 25.0217 13.5624 26.0918C13.5624 27.1618 14.4299 28.0293 15.4999 28.0293Z" fill="#0079F0"/>
</svg>
