<svg width="31" height="31" viewBox="0 0 31 31" fill="none" xmlns="http://www.w3.org/2000/svg">
<path d="M16.9991 5.69247C16.0768 5.1371 14.9231 5.1371 14.0008 5.69247L13.3339 6.09404C11.7158 7.06839 9.89918 7.66629 8.01867 7.84346L7.59851 7.88304C6.76915 7.96118 6.13538 8.65747 6.13538 9.49051V11.6139C6.13538 15.2029 7.59249 18.6382 10.1729 21.1327L14.3778 25.1976C15.0036 25.8026 15.9963 25.8026 16.6222 25.1976L20.827 21.1327C23.4074 18.6382 24.8645 15.2029 24.8645 11.6139V9.49051C24.8645 8.65747 24.2308 7.96118 23.4014 7.88304L22.9812 7.84346C21.1007 7.66629 19.2842 7.06839 17.666 6.09404L16.9991 5.69247Z" fill="#0079F0"/>
</svg>
