<svg width="25" height="25" viewBox="0 0 25 25" fill="none" xmlns="http://www.w3.org/2000/svg">
<path d="M11.8093 3.90625C11.3322 3.90626 10.8853 4.13964 10.6127 4.53116L6.20449 10.8615C5.3767 12.0502 5.00775 13.4986 5.16598 14.9385L5.50496 18.0233C5.64982 19.3415 6.68468 20.3857 8.00156 20.5424L10.2068 20.8047C11.8908 21.005 13.5983 20.8314 15.2075 20.2961C16.3339 19.9215 17.2361 19.0665 17.6708 17.9619L19.4506 13.4389C19.5367 13.2202 19.5962 12.9918 19.6278 12.7589C19.9031 10.7306 18.0704 9.05023 16.0736 9.50018L12.0132 10.4151L13.2214 5.72849C13.4593 4.80557 12.7624 3.90623 11.8093 3.90625Z" fill="#53AF1B"/>
</svg>
